Coordinates
version=1
nRows=8
nColumns=46
inDegrees=yes

Units are S.I. units (second, meters, Newtons, ...)
Angles are in degrees.

endheader
time	pelvis_tilt	pelvis_list	pelvis_rotation	pelvis_tx	pelvis_ty	pelvis_tz	bb_angle	bb_tx	bb_ty	bb_tz	hip_flexion_r	hip_adduction_r	hip_rotation_r	knee_angle_r	knee_angle_r_beta	ankle_angle_r	subtalar_angle_r	mtp_angle_r	crank_angle_r	hip_flexion_l	hip_adduction_l	hip_rotation_l	knee_angle_l	knee_angle_l_beta	ankle_angle_l	subtalar_angle_l	mtp_angle_l	crank_angle_l	lumbar_extension	lumbar_bending	lumbar_rotation	arm_flex_r	arm_add_r	arm_rot_r	elbow_flex_r	pro_sup_r	wrist_flex_r	wrist_dev_r	arm_flex_l	arm_add_l	arm_rot_l	elbow_flex_l	pro_sup_l	wrist_flex_l	wrist_dev_l
      0.00000000	     -8.86613400	      0.35648063	      2.09648471	      0.10678526	      1.14602160	     -0.25717708	      0.00000000	      0.50000000	      0.00000000	      0.25000000	     46.91799045	     -7.11125570	     -4.38027304	     71.43467383	      1.24677026	      7.58119249	     -4.21214765	      0.00000000	      0.00000000	     78.52737796	     -5.52030378	      0.60807826	     91.39251293	      1.59510026	     15.37957178	     -1.02476811	      0.00000000	      0.00000000	    -56.20325698	     -0.04803125	      2.00996134	     89.79405592	     -1.61744429	     20.48503212	     31.30646126	     20.32333558	      0.00000000	      0.00000000	     89.75830529	      2.72517507	     21.39864728	     30.45836657	     19.91001719	      0.00000000	      0.00000000
      0.00500000	     -8.75213397	      0.30814743	      2.16582567	      0.10674574	      1.14631129	     -0.25733055	      0.00000000	      0.50000000	      0.00000000	      0.25000000	     46.69109141	     -7.12399819	     -4.50181787	     71.23754094	      1.24332964	      7.56317515	     -4.14105136	      0.00000000	      0.00000000	     78.48687948	     -5.47978417	      0.68658284	     91.51693448	      1.59727183	     15.41683275	     -0.94225726	      0.00000000	      0.00000000	    -56.37277100	      0.03273020	      2.02561187	     89.79349999	     -1.46909890	     19.64382667	     31.28327857	     21.76424492	      0.00000000	      0.00000000	     89.75728445	      2.90180554	     20.54925685	     30.41753537	     21.35855870	      0.00000000	      0.00000000
      0.01000000	     -8.81946190	      0.31773747	      2.15820133	      0.10671082	      1.14617336	     -0.25727941	      0.00000000	      0.50000000	      0.00000000	      0.25000000	     46.72541721	     -7.11351601	     -4.49604153	     71.11749129	      1.24123438	      7.53323874	     -4.15373103	      0.00000000	      0.00000000	     78.64166170	     -5.50674981	      0.67550228	     91.65319690	      1.59965006	     15.36805403	     -0.94301993	      0.00000000	      0.00000000	    -56.29359486	     -0.01313855	      1.99522522	     89.79338940	     -1.34405133	     19.16936151	     30.98382606	     22.92236971	      0.00000000	      0.00000000	     89.75721262	      3.02336470	     20.07669970	     30.12704797	     22.53001729	      0.00000000	      0.00000000
      0.01500000	     -8.80450996	      0.33374527	      2.23375487	      0.10654943	      1.14617321	     -0.25727902	      0.00000000	      0.50000000	      0.00000000	      0.25000000	     46.65873324	     -7.15312324	     -4.53003060	     70.98862523	      1.23898524	      7.46964928	     -4.21611540	      0.00000000	      0.00000000	     78.74926703	     -5.47203826	      0.67537861	     91.81383817	      1.60245377	     15.30061442	     -0.86862397	      0.00000000	      0.00000000	    -56.26206942	     -0.00157827	      1.94044498	     89.79479962	     -1.74250753	     20.82255856	     30.72117899	     23.10361860	      0.00000000	      0.00000000	     89.76040511	      2.71147586	     21.81893475	     29.91475941	     22.67125981	      0.00000000	      0.00000000
      0.02000000	     -8.73163093	      0.27631913	      2.29462038	      0.10653528	      1.14629677	     -0.25735664	      0.00000000	      0.50000000	      0.00000000	      0.25000000	     46.48055074	     -7.13503300	     -4.62300315	     70.79278520	      1.23556719	      7.45718385	     -4.22918839	      0.00000000	      0.00000000	     78.75745173	     -5.43116243	      0.79529195	     91.95835038	      1.60497599	     15.35517603	     -0.70938560	      0.00000000	      0.00000000	    -56.40876052	      0.07691151	      1.98149641	     89.79282739	     -1.52455596	     19.36770747	     30.88402852	     24.17082272	      0.00000000	      0.00000000	     89.76002425	      3.03792756	     20.49960170	     29.98433342	     23.84265146	      0.00000000	      0.00000000
      0.02500000	     -8.78150832	      0.31214687	      2.29053266	      0.10649387	      1.14622392	     -0.25729028	      0.00000000	      0.50000000	      0.00000000	      0.25000000	     46.48831728	     -7.14582396	     -4.60295957	     70.64316485	      1.23295582	      7.42274124	     -4.23531188	      0.00000000	      0.00000000	     78.89852202	     -5.46549931	      0.72617573	     92.09571975	      1.60737354	     15.28619676	     -0.76676591	      0.00000000	      0.00000000	    -56.34298692	      0.02929338	      1.90492853	     89.79339425	     -1.34594402	     18.97956580	     30.58841154	     24.96358234	      0.00000000	      0.00000000	     89.75972714	      3.13459223	     20.02960402	     29.80370281	     24.64776911	      0.00000000	      0.00000000
      0.03000000	     -8.65220015	      0.25959631	      2.36205928	      0.10649882	      1.14664792	     -0.25743217	      0.00000000	      0.50000000	      0.00000000	      0.25000000	     46.20630038	     -7.13924112	     -4.72370276	     70.37458579	      1.22826823	      7.44744719	     -4.24554309	      0.00000000	      0.00000000	     78.83750765	     -5.42604375	      0.79350749	     92.22179380	      1.60957394	     15.29612181	     -0.83486558	      0.00000000	      0.00000000	    -56.55359902	      0.11270315	      1.90304187	     89.79119350	     -1.32568510	     18.41453615	     30.76548518	     26.01110534	      0.00000000	      0.00000000	     89.75890509	      3.17443995	     19.44059020	     29.97028932	     25.70160303	      0.00000000	      0.00000000
      0.03500000	     -8.78929701	      0.29251567	      2.33315403	      0.10644888	      1.14625637	     -0.25736107	      0.00000000	      0.50000000	      0.00000000	      0.25000000	     46.35465728	     -7.13992556	     -4.68048905	     70.30939221	      1.22713039	      7.36978526	     -4.26661486	      0.00000000	      0.00000000	     79.07927498	     -5.46266420	      0.78250936	     92.38829106	      1.61247987	     15.28910958	     -0.60679945	      0.00000000	      0.00000000	    -56.36161067	      0.05466916	      1.90557733	     89.79093055	     -1.02153667	     17.32910593	     30.24588009	     27.85932785	      0.00000000	      0.00000000	     89.76061085	      3.49119493	     18.38914182	     29.41502492	     27.59478985	      0.00000000	      0.00000000
